<?xml version="1.0" encoding="utf-8"?>
<!-- Generator: Adobe Illustrator 25.2.1, SVG Export Plug-In . SVG Version: 6.00 Build 0)  -->
<svg version="1.1" id="LOGO_GO" xmlns="http://www.w3.org/2000/svg" xmlns:xlink="http://www.w3.org/1999/xlink" x="0px" y="0px"
	 viewBox="0 0 3640.78 744.94" style="enable-background:new 0 0 3640.78 744.94;" xml:space="preserve">
<style type="text/css">
	.st0{opacity:0.28;}
	.st1{clip-path:url(#SVGID_2_);fill:#FFFFFF;}
	.st2{clip-path:url(#SVGID_2_);}
	.st3{fill:#D2D3D4;}
	.st4{fill:#CFE3BD;}
	.st5{fill:url(#SVGID_3_);}
	.st6{fill:#FFE2A6;}
	.st7{fill:url(#SVGID_4_);}
	.st8{fill:url(#SVGID_5_);}
	.st9{fill:url(#SVGID_6_);}
	.st10{fill:url(#SVGID_7_);}
	.st11{fill:url(#SVGID_8_);}
	.st12{fill:url(#SVGID_9_);}
	.st13{fill:url(#SVGID_10_);}
	.st14{fill:url(#SVGID_11_);}
	.st15{fill:url(#SVGID_12_);}
	.st16{fill:url(#SVGID_13_);}
	.st17{fill:url(#SVGID_14_);}
	.st18{fill:url(#SVGID_15_);}
	.st19{fill:url(#SVGID_16_);}
	.st20{fill:url(#SVGID_17_);}
	.st21{fill:url(#SVGID_18_);}
	.st22{fill:url(#SVGID_19_);}
	.st23{fill:url(#SVGID_20_);}
	.st24{fill:#E8B122;}
	.st25{fill:#7A6F00;}
	.st26{fill:#BF942D;}
	.st27{fill:#0F004E;}
	.st28{fill:#261B65;}
	.st29{fill:#D4A32A;}
</style>
<g class="st0">
	<defs>
		<ellipse id="SVGID_1_" class="st0" cx="3164.58" cy="529.51" rx="382.91" ry="107.23"/>
	</defs>
	<clipPath id="SVGID_2_">
		<use xlink:href="#SVGID_1_"  style="overflow:visible;"/>
	</clipPath>
	<polygon class="st1" points="3176.6,996.88 3898.96,652.42 3634.7,476.3 3362.41,402.14 3095.56,233.28 2762.7,124.97 
		2046.93,464.06 2374.29,572.37 2645.31,745.14 2912.25,818.76 	"/>
	<g class="st2">
		<polygon class="st3" points="2786,319.54 2761.15,331.93 2791.52,361.22 2835.7,343.19 		"/>
		<g>
			<path class="st3" d="M2618.33,706.5l152.28-78.01l51.71,31.37c0.52,0.31,1.1,0.56,1.72,0.73l31.96,8.83l-77.98,37.19l6.27,8.75
				l89.74-42.81c2.1-1,3.29-2.91,3.05-4.89c-0.25-1.98-1.89-3.65-4.19-4.29l-43.94-12.13l-47.05-28.55l44.67-22.88l-6.61-8.59
				l-212.05,108.63L2618.33,706.5z"/>
			<polygon class="st3" points="2282.71,411.36 2144.49,478.1 2158.97,482.89 2296.94,416.27 2296.4,415.53 2359.26,434.68 
				2363.6,425.18 2245.92,389.33 2232.02,395.91 			"/>
			<path class="st3" d="M2642.29,431.75c0.81,0.29,1.67,0.44,2.53,0.44c1.15,0,2.3-0.26,3.3-0.78l51.6-26.42l19.33,6.73
				l111.04,83.89l8.45-7.44l-25.99-19.64l136.16-68.07c1.68-0.84,2.77-2.28,2.94-3.88c0.17-1.6-0.6-3.18-2.08-4.24l-75.94-54.63
				c-0.24-0.17-0.5-0.33-0.78-0.48l-81.46-42.24l-6.67,8.55l81.05,42.03l38.25,27.52l-131.17,65.46l-46.15-34.87
				c-0.53-0.4-1.13-0.72-1.78-0.94l-173.97-60.55l-4.88,9.33l139.73,48.63l-41.49,21.24l-214.77-78.14l83.85-41.04l-6.39-8.69
				l-91.31,44.7l-34.99-12.73l-13.26,6.28L2642.29,431.75z M2913.79,380.1l21.26,15.3l-131.97,65.98l-20.74-15.67L2913.79,380.1z"/>
			<polygon class="st3" points="3401.95,791.26 3393.35,798.57 3453.19,845.41 3464.34,840.1 			"/>
			<polygon class="st3" points="2941.27,767.62 2934.48,759.13 2875.24,790.72 2890.21,794.85 			"/>
			<path class="st3" d="M3481.27,602.01c0.4,1.92,2.12,3.49,4.42,4.02l96.65,22.53l3.41-9.75l-92.89-21.65l-5.32-25.49l151.27-70.81
				l-10.3-6.86l-143.19,67.03l-2.85-13.67c-0.33-1.58-1.55-2.94-3.3-3.66l-29.36-12.23l118.23-55.51l-15.76-4.29l-115.67,54.31
				l-89.99-37.47l-5.65,9.03l129.77,54.04L3481.27,602.01z"/>
			<polygon class="st3" points="3149.01,288.49 3101.84,310.64 3108.04,319.42 3159.62,295.2 			"/>
		</g>
		<polygon class="st4" points="2944.78,472.74 3113.23,467.11 3266.48,441.2 3341.04,472.74 3211.26,538.07 3164.31,527.94 
			2951.68,589.89 2886.79,491.89 		"/>
		<polygon class="st4" points="2759.76,138.17 2492.6,268.28 2592.01,308.83 2703.85,271.66 2782.55,276.73 2915.09,217.59 
			2902.67,185.48 		"/>
		<polygon class="st4" points="3010.36,619.74 2879.89,656.92 2881.96,678.88 2900.6,721.13 3004.15,758.3 3022.79,768.44 
			3033.14,775.2 3223.68,808.99 3269.25,834.34 3364.51,787.03 3318.95,724.51 3364.51,651.85 3321.02,623.12 3169.83,567.36 		"/>
		<linearGradient id="SVGID_3_" gradientUnits="userSpaceOnUse" x1="2716.4546" y1="991.9505" x2="3129.4917" y2="88.8334">
			<stop  offset="0.0354" style="stop-color:#148CBD"/>
			<stop  offset="0.2669" style="stop-color:#2E96C3"/>
			<stop  offset="0.7132" style="stop-color:#58B4D4"/>
			<stop  offset="1" style="stop-color:#71CDE1"/>
		</linearGradient>
		<path class="st5" d="M3042.93,884.9l112.36,75.71c11.25-48.15,31.35-147.92,38.02-218.64c6.25-66.32-62.97-98.79-99.41-130.67
			c-22.4-19.6-30.85-38.22-40-61.15c-11.72-29.38-4.9-56.35,3-87.57c8.11-32.08,28.46-72.44,14.92-112.62
			c-15.18-45.05-91.82-68.04-167.66-99.3c-59.62-24.57-111.75-63.92-145.34-104.3l-102.29,48.46
			c51.91,50.98,147.39,74.84,221.98,105.58c45.81,18.88,96.83,55.33,102.28,71.48c8.26,24.51,2.1,48.85-5.03,77.04
			c-8.98,35.5-32.03,78.19-13.51,124.61c14.83,37.16,44.62,63.23,70.9,86.22c36.39,31.84,69.7,49.11,66.4,84.15
			C3095.03,791.7,3065.52,847.94,3042.93,884.9z"/>
		<path class="st6" d="M3290.93,863.16l307.93-155.37c3.76-1.9,6-5.29,5.89-8.89l-3.96-121.18l83.78-46.36l-20.08-13.39
			l-83.27,46.07c-3.51,1.94-5.56,5.2-5.45,8.66l3.95,120.9l-308.73,155.77l0.24,0.32l-43.71-29.88c-1.61-1.1-3.55-1.85-5.61-2.18
			l-199.23-31.51l-20.1-16.39c-1.26-1.03-2.79-1.83-4.47-2.34l-254.69-77.09l-206.98-146.77l244.21-119.55
			c5.16-2.52,7.36-7.7,5.22-12.29l-40.39-86.88L2922.23,244l92.23,29.78l261.6,168.06c0.59,0.38,1.24,0.72,1.91,1.01l71.25,30.52
			l-146.65,75.27l13.24,17.16l236.47-121.38l-30.49-8.3l-50.48,25.91l1.06-1.65l-81.83-35.05l-262.13-168.4
			c-0.94-0.61-1.99-1.1-3.11-1.46l-99.41-32.1c-3.48-1.13-7.38-0.91-10.65,0.58l-186.04,85.07l-140.81,8.09l-100.82-42.26
			l-25.53,12.09l98.34,41.22l-347.64,172.52l28.69,9.49l348.24-172.82l131.55-7.56l37.73,81.16l-249.98,122.37
			c-3.41,1.67-5.64,4.57-5.98,7.8c-0.35,3.23,1.22,6.41,4.23,8.54l221.6,157.15c1.13,0.8,2.43,1.43,3.83,1.85l76.11,23.04
			l-50.04,26.88l29.87,8.24l49.08-26.37l149.25,45.17l20.86,17.02c1.75,1.43,3.99,2.4,6.42,2.79l199.81,31.61l105.5,72.12
			l22.8-10.87L3290.93,863.16z"/>
		<linearGradient id="SVGID_4_" gradientUnits="userSpaceOnUse" x1="3043.312" y1="566.5193" x2="1968.6721" y2="113.2608">
			<stop  offset="0.0354" style="stop-color:#F8A88D"/>
			<stop  offset="0.2501" style="stop-color:#F9B391"/>
			<stop  offset="0.6639" style="stop-color:#FBD09D"/>
			<stop  offset="1" style="stop-color:#FCEBA7"/>
		</linearGradient>
		<path class="st7" d="M3354.87,597.86c-1.3-0.96-2.79-1.74-4.39-2.31l-173.97-62.52c-3.85-1.39-8.21-1.52-12.18-0.38L2879,614.62
			l-90.23-59.85c6.02-5.72,9.3-12.41,9.3-19.42c0-3.29-0.8-6.5-2.19-9.59l122-54.97l186.94-11.61c2.54-0.16,5.01-0.79,7.2-1.85
			l172.08-83.36l-28.14-17.81l-157.52,76.31l-186.67,11.59c-2.37,0.14-4.67,0.71-6.75,1.64l-132.75,59.81
			c-11.8-5.03-26.57-7.82-42.01-7.82c-8.32,0-16.45,0.81-24.01,2.34l-74.79-49.61c-1.23-0.81-2.59-1.48-4.05-1.98l-293.93-100.6
			l-35.93,17.02l314.84,107.76l62.12,41.21c-7.33,6.1-11.43,13.44-11.43,21.22c0,5.06,1.79,9.93,5,14.42l-166.58,82.56l27.92,17.8
			l166.23-82.39c10.47,3.41,22.64,5.26,35.24,5.26c9.67,0,19.05-1.11,27.61-3.16l106.78,70.83c4.48,2.97,10.53,3.83,15.95,2.26
			l287.91-82.71l165.55,59.49l233.49,171.16l30.04-14.32L3354.87,597.86z M2758.42,540.5c-6.97,3.28-17,5.16-27.52,5.16
			c-10.64,0-20.82-1.92-27.93-5.27c-5.05-2.38-6.74-4.67-6.74-5.35c0-0.65,1.64-2.86,6.52-5.16c6.97-3.28,16.99-5.16,27.51-5.16
			c10.65,0,20.83,1.92,27.94,5.27c5.05,2.38,6.74,4.67,6.74,5.36C2764.93,536,2763.3,538.2,2758.42,540.5z"/>
		<polygon class="st4" points="3602.69,771.82 3559.19,736.34 3617.18,705.92 3685.53,560.6 3710.38,552.15 3857.43,650.16 		"/>
		<polygon class="st4" points="2498.81,623.12 2393.19,558.91 2382.83,494.7 2337.27,471.05 2436.68,420.36 2589.94,469.36 
			2579.58,493.01 2498.81,531.88 2463.6,550.47 2517.45,562.29 2534.02,611.3 		"/>
		<g>
			<linearGradient id="SVGID_5_" gradientUnits="userSpaceOnUse" x1="3313.4709" y1="576.2363" x2="2781.3962" y2="223.0424">
				<stop  offset="0.0354" style="stop-color:#D4A32A"/>
				<stop  offset="0.7803" style="stop-color:#E2AD24"/>
				<stop  offset="1" style="stop-color:#E8B122"/>
			</linearGradient>
			<path class="st8" d="M3230.79,550.78c-1.75,0-3.46-0.72-4.43-2.04c-1.48-1.99-0.7-4.59,1.75-5.8l14.51-7.17
				c2.44-1.2,5.63-0.57,7.11,1.43c1.48,1.99,0.7,4.59-1.75,5.8l-14.51,7.17C3232.63,550.58,3231.7,550.78,3230.79,550.78z
				 M3259.81,536.43c-1.75,0-3.46-0.72-4.43-2.04c-1.48-1.99-0.7-4.59,1.75-5.8l14.51-7.17c2.44-1.2,5.63-0.57,7.11,1.43
				c1.48,1.99,0.7,4.59-1.75,5.8l-14.51,7.17C3261.65,536.24,3260.72,536.43,3259.81,536.43z"/>
			<linearGradient id="SVGID_6_" gradientUnits="userSpaceOnUse" x1="3315.6492" y1="625.2058" x2="2604.988" y2="153.4654">
				<stop  offset="0.0354" style="stop-color:#D4A32A"/>
				<stop  offset="0.7803" style="stop-color:#E2AD24"/>
				<stop  offset="1" style="stop-color:#E8B122"/>
			</linearGradient>
			<path class="st9" d="M3209.18,561.45c-0.6,0-1.21-0.09-1.79-0.26l-7.77-2.34c-2.68-0.81-4.05-3.23-3.07-5.43
				c0.99-2.19,3.96-3.31,6.65-2.5l5.43,1.63l4.96-2.45c2.44-1.2,5.63-0.57,7.11,1.43c1.48,2,0.7,4.59-1.75,5.8l-7.09,3.5
				C3211.05,561.24,3210.12,561.45,3209.18,561.45z"/>
			<linearGradient id="SVGID_7_" gradientUnits="userSpaceOnUse" x1="3257.1785" y1="729.311" x2="2502.4587" y2="228.3244">
				<stop  offset="0.0354" style="stop-color:#D4A32A"/>
				<stop  offset="0.7803" style="stop-color:#E2AD24"/>
				<stop  offset="1" style="stop-color:#E8B122"/>
			</linearGradient>
			<path class="st10" d="M2898.7,627.51c-2.14,0-4.13-1.09-4.88-2.82c-0.95-2.2,0.47-4.61,3.16-5.39l15.14-4.35
				c2.71-0.79,5.65,0.38,6.6,2.58c0.95,2.2-0.47,4.61-3.16,5.39l-15.14,4.35C2899.85,627.44,2899.27,627.51,2898.7,627.51z
				 M2928.99,618.81c-2.14,0-4.13-1.09-4.88-2.82c-0.95-2.2,0.47-4.61,3.16-5.39l15.14-4.35c2.71-0.79,5.65,0.38,6.6,2.58
				c0.95,2.2-0.47,4.61-3.16,5.39l-15.14,4.35C2930.14,618.73,2929.56,618.81,2928.99,618.81z M2959.28,610.11
				c-2.14,0-4.13-1.09-4.88-2.82c-0.95-2.2,0.47-4.61,3.16-5.39l15.14-4.35c2.7-0.79,5.65,0.38,6.6,2.58
				c0.95,2.2-0.47,4.61-3.16,5.39l-15.14,4.35C2960.43,610.03,2959.85,610.11,2959.28,610.11z M2989.56,601.41
				c-2.14,0-4.13-1.09-4.88-2.82c-0.95-2.2,0.47-4.61,3.16-5.39l15.15-4.35c2.7-0.78,5.65,0.38,6.6,2.58
				c0.95,2.2-0.47,4.61-3.16,5.39l-15.14,4.35C2990.71,601.33,2990.13,601.41,2989.56,601.41z M3019.85,592.71
				c-2.14,0-4.13-1.09-4.88-2.82c-0.95-2.2,0.47-4.61,3.16-5.39l15.14-4.35c2.7-0.78,5.66,0.38,6.6,2.58
				c0.95,2.2-0.47,4.61-3.16,5.39l-15.14,4.35C3021,592.63,3020.42,592.71,3019.85,592.71z M3050.14,584.01
				c-2.14,0-4.13-1.09-4.88-2.82c-0.95-2.2,0.47-4.61,3.16-5.39l15.14-4.35c2.7-0.79,5.65,0.38,6.6,2.58
				c0.95,2.2-0.47,4.61-3.16,5.39l-15.14,4.35C3051.28,583.93,3050.71,584.01,3050.14,584.01z M3080.43,575.31
				c-2.14,0-4.13-1.09-4.88-2.82c-0.95-2.2,0.47-4.61,3.16-5.39l15.14-4.35c2.71-0.78,5.65,0.38,6.6,2.58
				c0.95,2.2-0.47,4.61-3.16,5.39l-15.15,4.35C3081.57,575.23,3081,575.31,3080.43,575.31z M3110.71,566.6
				c-2.14,0-4.13-1.09-4.88-2.82c-0.95-2.2,0.47-4.61,3.16-5.39l15.14-4.35c2.71-0.79,5.65,0.38,6.6,2.58
				c0.95,2.2-0.47,4.61-3.16,5.39l-15.14,4.35C3111.86,566.53,3111.28,566.6,3110.71,566.6z M3141,557.9
				c-2.14,0-4.13-1.09-4.88-2.82c-0.95-2.2,0.47-4.61,3.16-5.39l15.14-4.35c2.7-0.79,5.66,0.38,6.6,2.58
				c0.95,2.2-0.47,4.61-3.16,5.39l-15.14,4.35C3142.15,557.83,3141.57,557.9,3141,557.9z M3186.34,554.58
				c-0.59,0-1.2-0.08-1.79-0.26l-15.06-4.53c-2.68-0.81-4.05-3.23-3.07-5.43c0.99-2.19,3.96-3.31,6.65-2.5l15.06,4.53
				c2.68,0.81,4.05,3.23,3.07,5.42C3190.43,553.53,3188.45,554.58,3186.34,554.58z"/>
			<linearGradient id="SVGID_8_" gradientUnits="userSpaceOnUse" x1="3165.0376" y1="818.202" x2="2465.6235" y2="353.9274">
				<stop  offset="0.0354" style="stop-color:#D4A32A"/>
				<stop  offset="0.7803" style="stop-color:#E2AD24"/>
				<stop  offset="1" style="stop-color:#E8B122"/>
			</linearGradient>
			<path class="st11" d="M2875.74,634.11c-1.17,0-2.33-0.33-3.27-0.95l-6.43-4.26c-2.22-1.47-2.55-4.13-0.75-5.94
				c1.8-1.81,5.06-2.08,7.29-0.61l4.17,2.77l5.08-1.46c2.7-0.79,5.65,0.38,6.6,2.58c0.95,2.2-0.47,4.61-3.16,5.39l-7.81,2.24
				C2876.9,634.03,2876.32,634.11,2875.74,634.11z"/>
			<linearGradient id="SVGID_9_" gradientUnits="userSpaceOnUse" x1="3154.2646" y1="814.794" x2="2476.3347" y2="364.7809">
				<stop  offset="0.0354" style="stop-color:#D4A32A"/>
				<stop  offset="0.7803" style="stop-color:#E2AD24"/>
				<stop  offset="1" style="stop-color:#E8B122"/>
			</linearGradient>
			<path class="st12" d="M2857.89,622.26c-1.15,0-2.3-0.31-3.26-0.95l-11.42-7.58c-2.22-1.47-2.56-4.13-0.75-5.94
				c1.8-1.82,5.06-2.09,7.28-0.61l11.42,7.58c2.22,1.47,2.56,4.13,0.75,5.94C2860.88,621.73,2859.39,622.26,2857.89,622.26z
				 M2835.04,607.11c-1.15,0-2.3-0.31-3.26-0.95l-11.42-7.58c-2.22-1.47-2.56-4.13-0.75-5.94c1.8-1.82,5.07-2.09,7.28-0.61
				l11.42,7.58c2.22,1.47,2.56,4.13,0.75,5.94C2838.03,606.58,2836.54,607.11,2835.04,607.11z M2812.19,591.95
				c-1.15,0-2.3-0.31-3.26-0.95l-11.42-7.58c-2.22-1.47-2.56-4.13-0.75-5.94c1.8-1.82,5.07-2.09,7.28-0.61l11.42,7.58
				c2.22,1.47,2.56,4.13,0.75,5.94C2815.18,591.42,2813.69,591.95,2812.19,591.95z M2789.34,576.79c-1.15,0-2.3-0.31-3.26-0.95
				l-11.42-7.58c-2.22-1.47-2.56-4.13-0.75-5.94c1.8-1.82,5.06-2.09,7.28-0.61l11.42,7.58c2.22,1.47,2.56,4.13,0.75,5.94
				C2792.33,576.26,2790.84,576.79,2789.34,576.79z"/>
			<linearGradient id="SVGID_10_" gradientUnits="userSpaceOnUse" x1="3158.6584" y1="813.424" x2="2476.6499" y2="360.7032">
				<stop  offset="0.0354" style="stop-color:#D4A32A"/>
				<stop  offset="0.7803" style="stop-color:#E2AD24"/>
				<stop  offset="1" style="stop-color:#E8B122"/>
			</linearGradient>
			<path class="st13" d="M2766.49,561.64c-1.15,0-2.3-0.31-3.26-0.95l-6.43-4.26c-1.23-0.82-1.94-2.05-1.91-3.34
				c0.02-1.3,0.78-2.51,2.03-3.29c0.02-0.01,2.48-1.57,5.24-4.11c1.9-1.75,5.17-1.91,7.31-0.36c2.14,1.55,2.34,4.22,0.44,5.96
				c-0.66,0.61-1.3,1.17-1.92,1.68l1.76,1.17c2.22,1.47,2.56,4.13,0.75,5.94C2769.49,561.11,2767.99,561.64,2766.49,561.64z"/>
			<linearGradient id="SVGID_11_" gradientUnits="userSpaceOnUse" x1="3172.126" y1="797.9228" x2="2489.1931" y2="344.5886">
				<stop  offset="0.0354" style="stop-color:#D4A32A"/>
				<stop  offset="0.7803" style="stop-color:#E2AD24"/>
				<stop  offset="1" style="stop-color:#E8B122"/>
			</linearGradient>
			<path class="st14" d="M2773.79,542.26c-0.53,0-1.07-0.07-1.61-0.21c-2.72-0.72-4.2-3.11-3.32-5.33c0.6-1.51,0.91-2.99,0.91-4.39
				c0-1.62-0.38-3.15-1.17-4.69c-1.1-2.15,0.14-4.63,2.78-5.53c2.64-0.9,5.67,0.12,6.78,2.27c1.31,2.55,1.97,5.23,1.97,7.95
				c0,2.29-0.48,4.65-1.42,7.01C2778,541.12,2775.97,542.26,2773.79,542.26z M2763.99,520.79c-1.1,0-2.22-0.29-3.16-0.88
				c-3.24-2.04-7.2-3.67-11.77-4.84c-2.73-0.7-4.24-3.08-3.38-5.3c0.86-2.22,3.76-3.46,6.5-2.76c5.73,1.48,10.77,3.56,14.98,6.21
				c2.27,1.43,2.68,4.08,0.93,5.92C2767.07,520.22,2765.54,520.79,2763.99,520.79z M2735.84,513c-0.14,0-0.29,0-0.43-0.01
				c-4.58-0.32-9.7-0.31-14.3-0.07c-2.94,0.21-5.31-1.62-5.49-3.95c-0.18-2.33,1.99-4.34,4.84-4.48c5.08-0.27,10.73-0.27,15.82,0.08
				c2.85,0.19,4.97,2.24,4.73,4.56C2740.77,511.33,2738.5,513,2735.84,513z"/>
			<linearGradient id="SVGID_12_" gradientUnits="userSpaceOnUse" x1="3169.009" y1="821.1089" x2="2472.187" y2="358.555">
				<stop  offset="0.0354" style="stop-color:#D4A32A"/>
				<stop  offset="0.7803" style="stop-color:#E2AD24"/>
				<stop  offset="1" style="stop-color:#E8B122"/>
			</linearGradient>
			<path class="st15" d="M2697.63,515.83c-1.2,0-2.39-0.34-3.33-0.99l-6.34-4.35c-2.19-1.5-2.48-4.16-0.64-5.95
				c1.84-1.79,5.1-2.02,7.29-0.52l4.34,2.97c1.45-0.27,3.45-0.61,5.86-0.96c2.82-0.44,5.51,1.13,6,3.42c0.5,2.3-1.38,4.49-4.19,4.9
				c-4.66,0.68-7.62,1.32-7.65,1.33C2698.54,515.78,2698.08,515.83,2697.63,515.83z"/>
			<linearGradient id="SVGID_13_" gradientUnits="userSpaceOnUse" x1="3156.1477" y1="815.4073" x2="2476.2981" y2="364.1199">
				<stop  offset="0.0354" style="stop-color:#D4A32A"/>
				<stop  offset="0.7803" style="stop-color:#E2AD24"/>
				<stop  offset="1" style="stop-color:#E8B122"/>
			</linearGradient>
			<path class="st16" d="M2678.26,502.55c-1.17,0-2.35-0.32-3.32-0.99l-13.03-8.93c-2.19-1.5-2.48-4.17-0.64-5.95
				c1.84-1.79,5.1-2.02,7.29-0.52l13.03,8.93c2.19,1.5,2.48,4.16,0.63,5.95C2681.2,502.04,2679.73,502.55,2678.26,502.55z"/>
			<linearGradient id="SVGID_14_" gradientUnits="userSpaceOnUse" x1="3159.6323" y1="813.1586" x2="2478.0999" y2="360.7541">
				<stop  offset="0.0354" style="stop-color:#D4A32A"/>
				<stop  offset="0.7803" style="stop-color:#E2AD24"/>
				<stop  offset="1" style="stop-color:#E8B122"/>
			</linearGradient>
			<path class="st17" d="M2652.19,484.69c-1.17,0-2.36-0.32-3.33-0.99l-6.34-4.35c-1.29-0.88-1.97-2.23-1.82-3.6
				c0.15-1.37,1.1-2.6,2.56-3.29l7.17-3.39c2.46-1.17,5.64-0.49,7.07,1.53c1.44,2.02,0.59,4.6-1.88,5.77l-0.79,0.38l0.7,0.48
				c2.19,1.5,2.47,4.16,0.63,5.95C2655.14,484.18,2653.67,484.69,2652.19,484.69z"/>
			<linearGradient id="SVGID_15_" gradientUnits="userSpaceOnUse" x1="3269.9158" y1="817.3366" x2="2485.0859" y2="296.3627">
				<stop  offset="0.0354" style="stop-color:#D4A32A"/>
				<stop  offset="0.7803" style="stop-color:#E2AD24"/>
				<stop  offset="1" style="stop-color:#E8B122"/>
			</linearGradient>
			<path class="st18" d="M2665.7,470.94c-1.78,0-3.52-0.75-4.48-2.1c-1.44-2.02-0.59-4.6,1.88-5.78l12.68-6
				c2.48-1.17,5.65-0.49,7.08,1.53c1.44,2.02,0.59,4.6-1.88,5.78l-12.68,6C2667.48,470.76,2666.58,470.94,2665.7,470.94z
				 M2691.05,458.93c-1.78,0-3.52-0.75-4.48-2.1c-1.44-2.02-0.59-4.6,1.88-5.78l12.68-6c2.48-1.17,5.64-0.49,7.08,1.53
				c1.44,2.02,0.59,4.6-1.88,5.78l-12.68,6C2692.83,458.75,2691.93,458.93,2691.05,458.93z M2716.4,446.92
				c-1.78,0-3.52-0.75-4.48-2.1c-1.44-2.02-0.59-4.6,1.88-5.78l12.68-6c2.48-1.17,5.64-0.48,7.08,1.53c1.44,2.02,0.59,4.6-1.88,5.78
				l-12.68,6C2718.18,446.74,2717.28,446.92,2716.4,446.92z M2741.75,434.91c-1.78,0-3.52-0.75-4.48-2.1
				c-1.44-2.02-0.59-4.6,1.88-5.78l12.68-6c2.48-1.17,5.64-0.48,7.08,1.53c1.44,2.02,0.59,4.6-1.88,5.78l-12.68,6
				C2743.53,434.73,2742.63,434.91,2741.75,434.91z"/>
			<linearGradient id="SVGID_16_" gradientUnits="userSpaceOnUse" x1="3222.7092" y1="714.5275" x2="2557.9646" y2="273.2668">
				<stop  offset="0.0354" style="stop-color:#D4A32A"/>
				<stop  offset="0.7803" style="stop-color:#E2AD24"/>
				<stop  offset="1" style="stop-color:#E8B122"/>
			</linearGradient>
			<path class="st19" d="M2767.1,422.91c-1.78,0-3.52-0.75-4.48-2.1c-1.44-2.02-0.59-4.6,1.88-5.78l3.71-1.76l-1.15-3.37
				c-0.77-2.25,0.85-4.58,3.6-5.2c2.74-0.62,5.61,0.69,6.37,2.94l2.22,6.51c0.63,1.85-0.35,3.82-2.39,4.79l-7.16,3.4
				C2768.88,422.72,2767.98,422.91,2767.1,422.91z"/>
			<linearGradient id="SVGID_17_" gradientUnits="userSpaceOnUse" x1="3227.0981" y1="696.9142" x2="2570.7336" y2="261.2162">
				<stop  offset="0.0354" style="stop-color:#D4A32A"/>
				<stop  offset="0.7803" style="stop-color:#E2AD24"/>
				<stop  offset="1" style="stop-color:#E8B122"/>
			</linearGradient>
			<path class="st20" d="M2767.93,400.99c-2.26,0-4.34-1.22-4.98-3.09l-4.11-12.01c-0.77-2.25,0.84-4.58,3.6-5.2
				c2.74-0.63,5.61,0.69,6.38,2.93l4.11,12.01c0.77,2.25-0.84,4.58-3.6,5.2C2768.86,400.94,2768.39,400.99,2767.93,400.99z"/>
			<linearGradient id="SVGID_18_" gradientUnits="userSpaceOnUse" x1="3243.2434" y1="687.1689" x2="2578.4885" y2="245.9012">
				<stop  offset="0.0354" style="stop-color:#D4A32A"/>
				<stop  offset="0.7803" style="stop-color:#E2AD24"/>
				<stop  offset="1" style="stop-color:#E8B122"/>
			</linearGradient>
			<path class="st21" d="M2759.72,376.96c-2.27,0-4.35-1.22-4.98-3.09l-2.22-6.51c-0.66-1.92,0.42-3.94,2.58-4.87l7.33-3.15
				c2.53-1.09,5.66-0.29,6.99,1.77c1.33,2.07,0.36,4.62-2.17,5.71l-3.63,1.56l1.1,3.23c0.77,2.25-0.85,4.58-3.6,5.2
				C2760.65,376.91,2760.18,376.96,2759.72,376.96z"/>
			<linearGradient id="SVGID_19_" gradientUnits="userSpaceOnUse" x1="3300.8184" y1="695.2214" x2="2578.2056" y2="215.5476">
				<stop  offset="0.0354" style="stop-color:#D4A32A"/>
				<stop  offset="0.7803" style="stop-color:#E2AD24"/>
				<stop  offset="1" style="stop-color:#E8B122"/>
			</linearGradient>
			<path class="st22" d="M2781.18,360.01c-1.86,0-3.66-0.82-4.59-2.26c-1.33-2.07-0.36-4.62,2.18-5.7l10.35-4.14
				c2.52-1.08,5.66-0.29,6.99,1.78c1.33,2.07,0.36,4.62-2.18,5.7l-10.35,4.15C2782.81,359.86,2781.99,360.01,2781.18,360.01z"/>
		</g>
		<linearGradient id="SVGID_20_" gradientUnits="userSpaceOnUse" x1="3296.6982" y1="679.9802" x2="2588.7786" y2="210.0598">
			<stop  offset="0.0354" style="stop-color:#943895"/>
			<stop  offset="0.2294" style="stop-color:#9E4098"/>
			<stop  offset="0.6053" style="stop-color:#BB539F"/>
			<stop  offset="1" style="stop-color:#E06EAA"/>
		</linearGradient>
		<path class="st23" d="M2807.98,353.81c-5.01,2.36-13.16,2.35-18.2-0.03c-5.04-2.37-5.07-6.21-0.06-8.57
			c5.01-2.36,13.16-2.35,18.2,0.03C2812.96,347.61,2812.99,351.45,2807.98,353.81z"/>
		<polygon class="st3" points="3407.32,771.26 3481.87,735.21 3392.13,667.62 3365.9,682.26 3415.6,727.32 3382.46,744.22 		"/>
		<polygon class="st3" points="3225.06,942.48 3299.62,906.44 3231.27,857.43 3205.04,872.08 3200.21,915.45 		"/>
		<polygon class="st3" points="3336.9,516.67 3277.53,547.09 3316.84,565.06 3354.27,556.04 3396.27,575.25 3441.83,553.84 		"/>
		<polygon class="st3" points="2639.64,344.32 2623.07,353.33 2701.77,381.49 2718.34,367.97 2703.16,344.32 		"/>
		<polygon class="st3" points="2697.63,639.46 2757,609.04 2733.53,589.89 2708.68,601.16 2685.21,583.13 2641.02,604.54 		"/>
		<polygon class="st3" points="3103.56,415.29 3160.17,383.75 3103.56,343.19 3084.23,357.84 3114.61,376.99 3088.37,395.01 		"/>
		<polygon class="st3" points="3521.91,704.79 3563.34,683.39 3561.96,629.32 3530.2,624.81 3521.91,659.73 3506.73,668.75 
			3439.07,620.31 3416.98,630.45 		"/>
		<polygon class="st3" points="2879.89,604.54 2925.45,585.39 2872.98,500.9 2831.56,518.92 2830.18,543.71 2808.09,557.22 		"/>
	</g>
</g>
<path class="st24" d="M3107.26,498.04c-32.45,10.06-81.05,21.96-130.78,21.96c-51.58,0-95.64-13.04-128.37-39.25
	c-31.31-24.94-52.14-67.44-52.14-120.58c0-74.96,30.75-134.61,79.49-174.85c44.07-35.85,105.13-54.98,173.57-54.98
	c50.87,0,89.83,9.21,105.84,16.72l-28.2,81.47c-16.29-7.08-47.61-15.3-81.33-15.3c-34.86,0-65.32,8.22-87.99,23.66
	c-32.31,23.38-54.69,64.19-54.69,116.47c0,60.08,38.4,84.87,87.85,84.87c17.43,0,27.06-2.13,34.57-4.96l12.61-65.74h-51.58
	l15.3-76.65h145.37L3107.26,498.04z"/>
<g>
	<g>
		<g>
			<g>
				<g>
					<g>
						<path class="st25" d="M94.62,417.21c4.21,22.48,46.62,44.44,108.52,59.88c19.15-9.17,39.35-16.37,60.36-21.3
							C167.1,430.43,94.54,390.04,97.06,343.8l-2.75,22.2c-1.37,17.15-1.32,18.3,0.01,47.75L94.62,417.21z"/>
					</g>
				</g>
				<g>
					<g>
						<path class="st26" d="M474.84,278.35c-21.01-23.09-28.29-30.91-55.8-56.96c2.72,21.3,3.36,26.37,5.36,46.65
							c-176.43-12.06-314.1,19.8-327.35,75.76l-2.75,22.2c-1.32,29.71-1.36,30.86,0.01,47.75l0.31,3.47
							c2.56-46.61,154.65-62.48,319.09-33.33c-7.3,27.17-7.43,27.69-14.14,52.04c23.24-17.75,30.71-23.35,63.97-46.64
							c50.81-35.12,50.81-35.12,62.73-43.52C511.25,323.61,499.41,306.12,474.84,278.35"/>
					</g>
				</g>
				<path class="st27" d="M686.66,423.75c18.68,0,36.36-7.58,55.53-22.22l53.01,58.06c-31.29,27.76-69.67,44.92-118.14,44.92
					c-83.79,0-135.29-48.97-135.29-121.16c0-83.82,62.6-167.62,167.61-167.62c90.88,0,121.17,61.59,121.17,119.66
					c0,18.17-3.03,35.85-8.09,51.5H645.27C646.78,409.1,660.91,423.75,686.66,423.75z M730.08,336.39c1.51-4.03,2.01-8.06,2.01-12.1
					c0-15.15-11.11-29.29-29.78-29.29c-17.16,0-39.39,10.6-49.98,41.39H730.08z"/>
				<path class="st27" d="M873.93,222.3h114.61l-9.09,34.33c18.17-22.22,47.97-40.9,82.29-40.9c50.48,0,78.75,32.82,78.75,84.31
					c0,14.14-2.02,29.79-6.56,46.45l-40.4,151.46h-114.6l36.85-137.32c2.02-7.07,3.03-15.14,3.03-20.7
					c0-14.65-7.58-24.24-24.24-24.24c-22.72,0-34.83,15.15-42.92,44.94l-36.85,137.32H800.21L873.93,222.3z"/>
				<path class="st27" d="M1182.44,222.3h114.6l-14.64,55.54c25.74-37.37,57.56-61.6,101.99-59.57l-32.32,121.68h-12.11
					c-54.03,0-82.8,28.77-98.44,89.37l-18.18,68.65h-114.62L1182.44,222.3z"/>
				<path class="st27" d="M1392.81,222.3h114.6l-73.71,275.66h-114.6L1392.81,222.3z M1476.62,108.2l110.06,28.78l-101.99,68.16
					h-82.8L1476.62,108.2z"/>
				<path class="st27" d="M1802.42,420.2c0-14.13,2.01-29.79,6.56-46.45l40.39-151.46h114.62l-36.86,137.33
					c-2.03,7.07-3.04,15.15-3.04,20.7c0,14.64,7.57,24.24,24.24,24.24c22.71,0,34.83-15.16,42.92-44.94l36.85-137.33h114.6
					l-73.71,275.66h-114.62l9.1-34.33c-18.18,22.22-47.97,40.89-82.29,40.89C1830.69,504.51,1802.42,471.7,1802.42,420.2z"/>
				<path class="st27" d="M2258.26,423.75c18.69,0,36.34-7.58,55.53-22.22l53.02,58.06c-31.31,27.76-69.68,44.92-118.14,44.92
					c-83.81,0-135.31-48.97-135.31-121.16c0-83.82,62.59-167.62,167.61-167.62c90.87,0,121.16,61.59,121.16,119.66
					c0,18.17-3.03,35.85-8.07,51.5h-177.2C2218.38,409.1,2232.51,423.75,2258.26,423.75z M2301.68,336.39
					c1.51-4.03,2.01-8.06,2.01-12.1c0-15.15-11.1-29.29-29.78-29.29c-17.17,0-39.39,10.6-49.99,41.39H2301.68z"/>
				<path class="st27" d="M2389.07,426.26l143.9-114.1h-108.56l23.73-89.86h261.02l-19.18,71.69l-143.89,114.1h113.59l-24.22,89.86
					h-265.56L2389.07,426.26z"/>
				<g>
					<path class="st27" d="M1716.83,222.53l-6.95,25.6c18.6,27.81,10.72,68.93,10.72,68.93c-0.76-27.4-10.01-51.1-14.1-60.34
						c-15.71-23.63-41.2-40.74-79.93-40.74c-80.66,0-144.69,80.66-144.69,181.01c0,68.07,41.35,107.4,90.26,107.4
						c28.95,0,58.38-14.35,78.05-34.2l0.14-0.52h0.39c0.02-0.02,0.05-0.05,0.07-0.07l-0.01,0.07h58.26l-59.29,3.83l-4.7,17.51h77.2
						l-79,6.65l-4.16,15.52h100.12l-101.94,6.75l-15.72,58.58H1736l95.3-355.97H1716.83z M1632.63,411.09
						c-21.17,0-36.81-15.63-36.81-39.32c0-32.27,22.68-62.02,53.94-62.02c21.17,0,36.81,15.63,36.81,39.33
						C1686.58,381.35,1663.89,411.09,1632.63,411.09z"/>
				</g>
				<g>
					<path class="st28" d="M830.39,335.27c0-58.08-30.28-119.67-121.16-119.67c-86.02,0-143.56,56.23-161.57,122.64
						c58.88,21.57,119.47,37.35,181.15,48.52h93.51C827.37,371.12,830.39,353.44,830.39,335.27z M729.93,336.28h-77.75
						c10.6-30.81,32.82-41.41,49.98-41.41c18.68,0,29.79,14.13,29.79,29.29C731.94,328.2,731.44,332.23,729.93,336.28z"/>
					<path class="st28" d="M1140.38,299.92c0-51.5-28.28-84.32-78.76-84.32c-34.34,0-64.13,18.68-82.3,40.89l9.08-34.33H873.78
						l-47.81,178.78c37.32,3.94,74.89,6.49,112.6,7.91l12.96-48.36c8.08-29.78,20.19-44.93,42.92-44.93
						c16.66,0,24.25,9.59,24.25,24.24c0,5.55-1.02,13.63-3.03,20.7l-13.35,49.72c38.34,0.24,76.74-0.57,115.02-2.12l16.48-61.72
						C1138.35,329.71,1140.38,314.06,1140.38,299.92z"/>
					<path class="st28" d="M1339.84,339.81h12.12l32.31-121.68c-44.43-2.02-76.23,22.22-101.99,59.58l14.64-55.53h-114.61
						l-49.51,185.15c39.59-1.84,79.08-4.43,118.28-7.5C1268.11,359.27,1295.45,339.81,1339.84,339.81z"/>
					<path class="st28" d="M1392.7,222.17l-44.99,168.24c39.85-4.99,79.58-11.15,119.28-17.46l40.32-150.79H1392.7z"/>
					<path class="st28" d="M1963.9,222.17H1849.3l-29.67,111.24c38.75-2.52,77.49-4.75,116.19-6.58L1963.9,222.17z"/>
					<path class="st28" d="M2028.04,222.17l-27.39,102.01c38.46-1.31,76.9-2.12,115.31-2.27l26.69-99.73H2028.04z"/>
					<path class="st28" d="M2280.94,215.6c-78.85,0-133.78,47.24-156.26,106.25c34.97-0.04,69.93,0.48,104.9,1.65
						c11.66-20.99,29.77-28.64,44.31-28.64c18.68,0,29.77,14.13,29.77,29.29c0,0.94-0.02,1.88-0.09,2.84
						c32.84,2.02,65.66,4.7,98.56,8.11C2402.07,277.08,2371.75,215.6,2280.94,215.6z"/>
					<path class="st28" d="M2598.95,366.05l91.01-72.19l19.19-71.69h-261.04l-23.73,89.87h108.56l-42.11,33.38
						c9.89,1.41,19.75,2.9,29.65,4.46C2547.25,353.77,2573.34,359.28,2598.95,366.05z"/>
					<path class="st28" d="M1831.22,222.39h-114.47l-6.96,25.61c18.6,27.81,10.74,68.93,10.74,68.93c-0.76-27.4-10-51.1-14.12-60.36
						c-15.71-23.63-41.19-40.75-79.93-40.75c-73.57,0-133.29,67.12-143.22,155.07c37.98-4.56,75.96-9.28,114.05-13.89
						c5.62-26.09,25.94-47.38,52.39-47.38c20.44,0,35.65,14.58,36.7,36.9c38.09-4.29,76.33-8.29,114.74-11.76L1831.22,222.39z"/>
				</g>
				<g>
					<path class="st27" d="M294.15,380.01c-43.64-3.15-84-2.91-117.87,0.43l-31.56,117.52h118.13l31.51-118.01L294.15,380.01z"/>
					<path class="st27" d="M465.8,144.55l-33.81,124.7H323.94l33.82-124.7H239.63l-57.37,213.63l4.65-17.28
						c5.3-0.55,10.8-1.03,16.57-1.44c117.34-8.19,224.44-5.02,302.46,15.16c-11.51,8.11-12.1,8.52-62.32,43.24
						c-29.67,20.76-38.83,27.47-56.95,41.27l-0.02-0.14l-15.74,58.97h118.14l94.91-353.41H465.8z"/>
				</g>
				<g>
					<path class="st28" d="M203.47,339.46c16.79-1.17,33.35-2.08,49.66-2.77l51.66-192.36h-65.37L188.99,340.7
						C193.66,340.24,198.45,339.82,203.47,339.46z"/>
					<path class="st28" d="M178.85,380.21l-30.3,117.96h61.21l32.31-120.32C219.35,377.62,198.09,378.42,178.85,380.21z"/>
				</g>
				<g>
					<path class="st28" d="M475.21,347.81l54.65-203.49h-65.36l-50.12,195.18C435.82,341.52,456.21,344.24,475.21,347.81z"/>
					<path class="st28" d="M443.61,397.86c-28.18,19.72-37.87,26.77-54.3,39.25l-15.68,61.06h61.2l31.08-115.73
						C459.79,386.67,452.49,391.72,443.61,397.86z"/>
				</g>
				<g>
					<g>
						<path class="st29" d="M474.84,278.35c-21.01-23.09-28.29-30.91-55.8-56.96c2.72,21.3,3.36,26.37,5.36,46.65
							c-176.43-12.06-314.1,19.8-327.35,75.76l-2.75,22.2c-1.32,29.71-1.36,30.86,0.01,47.75l0.31,3.47
							c2.56-46.61,154.65-62.48,319.09-33.33c-7.3,27.17-7.43,27.69-14.14,52.04c23.24-17.75,30.71-23.35,63.97-46.64
							c50.81-35.12,50.81-35.12,62.73-43.52C511.25,323.61,499.41,306.12,474.84,278.35"/>
					</g>
				</g>
				<path class="st24" d="M94.62,417.21l-1.33-44.33c0,0-2.24-103.17,432.98-26.39l-126.7,89.42l14.14-52.04
					c0,0-276.55-47.14-319.39,29.87"/>
			</g>
		</g>
	</g>
</g>
<g id="XMLID_736_">
	<path class="st24" d="M3414.78,258.35c0.74-70.79-57.25-129.41-128.04-129.41c-70.72,0-128.04,57.33-128.04,128.04
		c0,21.86,5.48,42.44,15.14,60.44l0,0l103.92,199.23c3.79,7.26,14.18,7.26,17.96-0.01l101.54-194.98c2.17-3.7,4.17-7.53,5.97-11.46
		l0.03-0.06l0,0C3410.48,294.35,3414.58,276.82,3414.78,258.35z M3286.74,361.45c-54.79,0-99.37-44.58-99.37-99.37
		s44.58-99.37,99.37-99.37c54.79,0,99.37,44.58,99.37,99.37S3341.53,361.45,3286.74,361.45z"/>
</g>
<g>
	<path class="st28" d="M3266.99,211.62c13.18,0,26.36,0,39.54,0c4.28,0,5.92,1.62,5.92,5.87c0.01,16.38,0,32.75,0,49.13
		c0,4.11-1.74,5.86-5.82,5.86c-26.51,0-53.01,0-79.52,0c-4.02,0-5.66-1.63-5.66-5.62c0-16.57,0-33.14,0-49.72
		c0-3.94,1.59-5.52,5.56-5.52C3240.33,211.62,3253.66,211.62,3266.99,211.62z"/>
	<path class="st28" d="M3255.12,280.85c0.58-0.31,1.17-0.16,1.74-0.16c16.92-0.01,33.84,0,50.76-0.01
		c6.55-0.01,11.49-4.05,12.84-10.41c0.22-1.02,0.18-2.06,0.18-3.09c0.01-10.62,0-21.25,0.01-31.87c0-2.1,0.02-2.11,2.16-2.12
		c1.87,0,3.74,0.07,5.61-0.02c3.35-0.15,6.43,0.68,9.32,2.32c6.88,3.9,12.6,9.04,16.86,15.74c1.13,1.78,1.65,3.71,1.64,5.87
		c-0.05,11.95-0.02,23.9-0.02,35.85c0,3.76-1.52,5.29-5.26,5.29c-1.38,0-2.88,0.3-4.09-0.16c-1.38-0.52-1.11-2.35-1.62-3.58
		c-3.49-8.4-11.46-13.78-20.42-13.69c-9.22,0.1-17.79,6.59-20.25,15.5c-0.42,1.53-1.06,1.99-2.62,1.97
		c-9.1-0.08-18.2-0.06-27.3-0.01c-1.23,0.01-1.78-0.37-2.16-1.59c-2.49-8.15-7.87-13.3-16.2-15.31
		C3255.89,281.28,3255.42,281.31,3255.12,280.85z M3328.13,254.76c0,3.15,0.02,6.29-0.01,9.44c-0.01,0.97,0.27,1.43,1.34,1.42
		c6.05-0.03,12.09-0.02,18.14-0.01c0.88,0,1.42-0.2,1.36-1.23c-0.1-1.62-0.31-3.23-0.64-4.81c-2.05-9.8-8.94-15.49-18.57-15.4
		c-1.18,0.01-1.67,0.34-1.64,1.59C3328.17,248.76,3328.13,251.76,3328.13,254.76z"/>
	<path class="st28" d="M3251.71,289.21c7.34-0.01,13.27,5.88,13.27,13.18c0,7.16-5.99,13.18-13.15,13.21
		c-7.23,0.03-13.25-5.99-13.24-13.24C3238.59,295.09,3244.46,289.21,3251.71,289.21z"/>
	<path class="st28" d="M3312.04,302.36c0-7.33,5.76-13.14,13.05-13.16c7.31-0.01,13.27,5.88,13.31,13.17
		c0.04,7.16-6.1,13.25-13.31,13.22C3317.83,315.56,3312.04,309.69,3312.04,302.36z"/>
	<path class="st28" d="M3248.58,280.68c-0.46,0.61-0.93,0.6-1.34,0.7c-8.31,2.01-13.69,7.15-16.18,15.29
		c-0.37,1.21-0.9,1.7-2.15,1.6c-1.12-0.09-2.26,0.01-3.39-0.04c-2.24-0.1-4.03-1.83-4.07-4.06c-0.06-4.27-0.01-8.55-0.04-12.82
		c-0.01-1,0.33-1.35,1.32-1.02c1.18,0.39,2.42,0.36,3.65,0.36c6.83,0,13.65,0,20.48,0C3247.39,280.68,3247.9,280.68,3248.58,280.68z
		"/>
</g>
</svg>
